<svg xmlns="http://www.w3.org/2000/svg" width="20" height="20" viewBox="0 0 24 24" fill="none" stroke="currentColor" stroke-width="2" stroke-linecap="round" stroke-linejoin="round">
  <path d="M12 2a4 4 0 0 1 4 4v2a4 4 0 0 1-8 0V6a4 4 0 0 1 4-4z"/>
  <path d="M16 14H8a6 6 0 0 0-6 6h20a6 6 0 0 0-6-6z"/>
  <circle cx="12" cy="10" r="1"/>
  <path d="M9 8c0 0 1-2 3-2s3 2 3 2"/>
  <rect x="4" y="20" width="4" height="3" rx="1"/>
  <rect x="10" y="20" width="4" height="3" rx="1"/>
  <rect x="16" y="20" width="4" height="3" rx="1"/>
</svg>